<svg width="375" height="189" viewBox="0 0 375 189" fill="none" xmlns="http://www.w3.org/2000/svg">
<path fill-rule="evenodd" clip-rule="evenodd" d="M185.662 0V14.8442H179.007V72.6096H170.265V54.8203H165.661V50.5234L155.591 54.8203H153.124V44.1337L141.074 28.6448L129.025 44.1337V80.4751H123.368V87.5374H115.022V58.7146H108.105L108.393 46.7556H100.389V43.3304H92.2788L91.0308 22.6177L89.7835 43.3304H88.2234V46.7556H86.1187L86.8899 78.7831H85.3959V64.6533L68.6271 54.8203V72.6096H51.8577V58.7146H41.5063V50.5234L23.7744 62.9546V50.5234L0 67.191V189H17.7312H23.7744H40.7508H41.5063H51.8577H68.6271H85.3959H88.8714H103.915H105.64H114.052H115.022H129.025H138.151H153.124H170.265H179.007H193.823H200.157H215.014H219.042H232.685H240.113H252.112H256.46H262.648H273.183H275.888H286.423H292.108H296.959H315.882H323.722H333.92H344.118H351.969H354.315H365.705H368.738H379V70.2874H370.924L371.491 46.7556H354.315V12.6921H344.118V19.9329H333.92V26.5623H323.722V60.7408H315.882V44.8499H313.09V43.0973H294.901V44.8499H292.108V77.9853H286.423V35.3995H283.63V33.6469H265.441V35.3995H262.648V59.9223H256.46V44.8499H253.667V43.0973H235.478V44.8499H232.685V50.5234L226.848 56.7653V67.2303H219.042V60.7408H215.014V44.8499H200.157V35.4419L193.823 30.0759V14.8442H187.168V0H185.662Z" fill="#4CE5B1" fill-opacity="0.2"/>
<path fill-rule="evenodd" clip-rule="evenodd" d="M255.039 68V77.5034H250.772V114.486H245.168V103.097H242.216V100.346L235.759 103.097H234.177V96.2549L226.451 86.3387L218.726 96.2549V119.521H215.099V124.042H209.748V105.59H205.313L205.498 97.9335H200.366V95.7406H195.166L194.365 82.4801L193.566 95.7406H192.565V97.9335H191.216L191.71 118.438H190.753V109.392L180.001 103.097V114.486H169.249V105.59H162.612V100.346L151.243 108.304V100.346L136 111.016V189H147.369H151.243H162.128H162.612H169.249H180.001H190.753H192.981H202.626H203.732H209.126H209.748H218.726H224.577H234.177H245.168H250.772H260.272H264.333H273.858H276.441H285.188H289.951H297.645H300.432H304.4H311.154H312.889H319.643H323.288H326.398H338.531H343.558H350.096H356.635H361.669H363.173H370.476H372.42H379V112.999H373.822L374.185 97.9335H363.173V76.1257H356.635V80.7613H350.096V85.0055H343.558V106.887H338.531V96.7134H336.741V95.5914H325.079V96.7134H323.288V117.927H319.643V90.6632H317.853V89.5412H306.19V90.6632H304.4V106.363H300.432V96.7134H298.642V95.5914H286.979V96.7134H285.188V100.346L281.446 104.342V111.042H276.441V106.887H273.858V96.7134H264.333V90.6903L260.272 87.2549V77.5034H256.005V68H255.039Z" fill="#4CE5B1" fill-opacity="0.3"/>
<path fill-rule="evenodd" clip-rule="evenodd" d="M94.3733 96V103.226H97.6219V131.344H101.889V122.685H104.136V120.593L109.052 122.685H110.256V117.483L116.138 109.943L122.02 117.483V135.173H124.781V138.611H128.855V124.581H132.231L132.09 118.759H135.997V117.092H139.956L140.565 107.01L141.174 117.092H141.936V118.759H142.963L142.587 134.349H143.316V127.471L151.501 122.685V131.344H159.687V124.581H164.74V120.593L173.395 126.645V120.593L185 128.707V188H176.345H173.395H165.108H164.74H159.687H151.501H143.316H141.62H134.276H133.434H129.328H128.855H122.02H117.565H110.256H101.889H97.6219H90.3897H87.298H80.0461H78.0798H71.4205H67.7945H61.9373H59.8153H56.7945H51.6521H50.3318H45.1893H42.4142H40.0465H30.8096H26.9825H22.005H17.0268H13.1945H12.0492H6.48947H5.0092H0V130.214H3.94189L3.66554 118.759H12.0492V102.178H17.0268V105.703H22.005V108.93H26.9825V125.567H30.8096V117.832H32.1723V116.979H41.0512V117.832H42.4142V133.961H45.1893V113.231H46.5526V112.378H55.4312V113.231H56.7945V125.169H59.8153V117.832H61.1783V116.979H70.0569V117.832H71.4205V120.593L74.2696 123.632V128.726H78.0798V125.567H80.0461V117.832H87.298V113.252L90.3897 110.64V103.226H93.6385V96H94.3733Z" fill="#4CE5B1" fill-opacity="0.2"/>
<path fill-rule="evenodd" clip-rule="evenodd" d="M143.535 187.397H108.742C104.637 187.397 101.279 184.039 101.279 179.934V96.5437C101.279 92.4393 104.637 89.0811 108.742 89.0811H143.535C147.639 89.0811 150.997 92.4393 150.997 96.5437V179.934C150.997 184.039 147.639 187.397 143.535 187.397Z" fill="white" stroke="#37334A" stroke-width="2" stroke-linecap="round" stroke-linejoin="round"/>
<path fill-rule="evenodd" clip-rule="evenodd" d="M143.535 187.397H108.742C104.637 187.397 101.279 184.039 101.279 179.934V96.5437C101.279 92.4393 104.637 89.0811 108.742 89.0811H143.535C147.639 89.0811 150.997 92.4393 150.997 96.5437V179.934C150.997 184.039 147.639 187.397 143.535 187.397Z" stroke="#37334A" stroke-width="2" stroke-linecap="round" stroke-linejoin="round"/>
<path fill-rule="evenodd" clip-rule="evenodd" d="M129.985 180.244C129.985 182.369 128.262 184.091 126.138 184.091C124.013 184.091 122.291 182.369 122.291 180.244C122.291 178.119 124.013 176.397 126.138 176.397C128.262 176.397 129.985 178.119 129.985 180.244Z" stroke="#37334A" stroke-width="2" stroke-linecap="round" stroke-linejoin="round"/>
<path d="M123.944 93.6458H131.522" stroke="#37334A" stroke-width="2" stroke-linecap="round" stroke-linejoin="round"/>
<path d="M120.754 93.6458H121.727" stroke="#37334A" stroke-width="2" stroke-linecap="round" stroke-linejoin="round"/>
<path fill-rule="evenodd" clip-rule="evenodd" d="M232.728 141.549C232.289 137.206 225.044 138.876 221.202 139.21C210.677 115.991 203.161 117.661 199.987 117.661C196.812 117.661 172.256 117.494 162.234 117.661C152.21 117.829 145.696 135.87 143.19 139.21C143.19 139.21 132.311 136.288 131.831 140.213C131.468 143.888 133.669 144.556 138.513 145.558C131.497 173.957 139.682 175.46 139.682 175.46V184.314C139.682 187.32 143.19 187.397 143.19 187.397H150.707C152.88 187.397 152.88 183.645 152.88 183.645V176.295H211.513V184.314C211.513 188.156 215.355 187.32 215.355 187.32H221.536C224.709 187.32 225.044 183.98 225.044 183.98V175.46C232.394 168.778 227.048 147.73 226.213 145.057C228.385 144.89 232.982 144.064 232.728 141.549Z" fill="#00BFCC"/>
<path fill-rule="evenodd" clip-rule="evenodd" d="M151.224 136.868C151.983 135.503 152.971 133.357 152.971 133.357C154.808 129.515 156.904 124.172 163.084 124.172H199C202.174 124.172 207.018 123.839 211.695 133.694C214.034 138.205 217.041 142.882 210.526 142.882H157.405C154.231 142.882 147.331 143.984 151.224 136.868Z" fill="#FDFFFE"/>
<path fill-rule="evenodd" clip-rule="evenodd" d="M153.084 168.89C150.662 168.89 145.735 167.72 143.228 166.384C140.723 165.047 141.558 160.036 141.809 159.409C142.059 158.783 143.562 157.697 144.899 158.365C146.235 159.034 149.265 159.754 152.5 160.454C156.302 161.276 157.01 163.293 157.427 165.539C157.845 167.786 155.507 168.89 153.084 168.89Z" fill="#FDFFFE"/>
<path fill-rule="evenodd" clip-rule="evenodd" d="M196.469 169.403C190.789 169.904 175.755 169.737 170.744 169.403C165.732 169.068 160.553 169.904 162.224 162.22C170.076 163.054 195.801 162.888 202.149 162.22C203.485 165.727 202.149 168.901 196.469 169.403Z" fill="#FDFFFE"/>
<path fill-rule="evenodd" clip-rule="evenodd" d="M222.094 166.384C219.588 167.72 214.66 168.89 212.237 168.89C209.816 168.89 207.477 167.786 207.895 165.54C208.313 163.294 209.02 161.276 212.823 160.454C216.058 159.754 219.087 159.034 220.423 158.365C221.76 157.697 223.263 158.783 223.513 159.409C223.764 160.036 224.599 165.047 222.094 166.384Z" fill="#FDFFFE"/>
<path d="M90.3423 187.397H244.272" stroke="#37334A" stroke-width="2" stroke-linecap="round" stroke-linejoin="round"/>
<path d="M247.58 187.397H249.442" stroke="#37334A" stroke-width="2" stroke-linecap="round" stroke-linejoin="round"/>
<path d="M253.209 187.397H276.247C296.895 187.397 302.101 186.171 302.101 179.807C302.101 173.737 297.04 173.444 275.925 173.444C261.752 173.444 255.1 173.01 255.1 166.791C255.1 159.302 267.726 160.033 279.547 160.244" stroke="#37334A" stroke-width="2" stroke-linecap="round" stroke-linejoin="round" stroke-dasharray="6.06 6.06"/>
<path d="M281.434 160.272C282.062 160.279 282.685 160.284 283.301 160.284" stroke="#37334A" stroke-width="2" stroke-linecap="round" stroke-linejoin="round"/>
<path fill-rule="evenodd" clip-rule="evenodd" d="M282.402 132.976C278.879 132.976 276.109 130.262 276.109 126.809C276.109 123.356 278.879 120.642 282.402 120.642C285.926 120.642 288.695 123.356 288.695 126.809C288.695 130.262 285.926 132.976 282.402 132.976ZM282.402 109.541C272.711 109.541 264.782 117.311 264.782 126.809C264.782 139.76 282.402 158.878 282.402 158.878C282.402 158.878 300.022 139.76 300.022 126.809C300.022 117.311 292.094 109.541 282.402 109.541Z" fill="white"/>
<path d="M282.402 158.878L281.667 159.555C281.856 159.761 282.123 159.878 282.402 159.878C282.682 159.878 282.948 159.761 283.138 159.555L282.402 158.878ZM282.402 131.976C279.412 131.976 277.109 129.691 277.109 126.809H275.109C275.109 130.833 278.345 133.976 282.402 133.976V131.976ZM277.109 126.809C277.109 123.927 279.412 121.642 282.402 121.642V119.642C278.346 119.642 275.109 122.785 275.109 126.809H277.109ZM282.402 121.642C285.393 121.642 287.695 123.927 287.695 126.809H289.695C289.695 122.785 286.459 119.642 282.402 119.642V121.642ZM287.695 126.809C287.695 129.691 285.393 131.976 282.402 131.976V133.976C286.459 133.976 289.695 130.833 289.695 126.809H287.695ZM282.402 108.541C272.178 108.541 263.782 116.74 263.782 126.809H265.782C265.782 117.882 273.244 110.541 282.402 110.541V108.541ZM263.782 126.809C263.782 130.253 264.948 134.028 266.626 137.699C268.31 141.383 270.547 145.04 272.769 148.267C274.992 151.497 277.214 154.315 278.879 156.326C279.712 157.332 280.407 158.137 280.894 158.691C281.138 158.968 281.33 159.183 281.462 159.329C281.527 159.402 281.578 159.458 281.613 159.496C281.63 159.515 281.643 159.53 281.652 159.54C281.657 159.544 281.66 159.548 281.663 159.551C281.664 159.552 281.665 159.553 281.666 159.554C281.666 159.554 281.666 159.555 281.666 159.555C281.667 159.555 281.667 159.555 282.402 158.878C283.138 158.2 283.138 158.2 283.138 158.2C283.138 158.2 283.137 158.2 283.137 158.2C283.137 158.199 283.136 158.198 283.135 158.197C283.133 158.195 283.131 158.192 283.127 158.188C283.119 158.179 283.107 158.166 283.091 158.149C283.059 158.114 283.01 158.06 282.947 157.99C282.821 157.85 282.634 157.641 282.396 157.371C281.92 156.829 281.238 156.039 280.419 155.05C278.781 153.071 276.597 150.301 274.416 147.133C272.233 143.961 270.064 140.41 268.445 136.867C266.819 133.311 265.782 129.84 265.782 126.809H263.782ZM282.402 158.878C283.138 159.555 283.138 159.555 283.138 159.555C283.138 159.555 283.138 159.554 283.139 159.554C283.14 159.553 283.14 159.552 283.142 159.551C283.144 159.548 283.148 159.544 283.152 159.54C283.161 159.53 283.174 159.515 283.192 159.496C283.226 159.458 283.277 159.402 283.343 159.329C283.475 159.183 283.667 158.968 283.91 158.691C284.398 158.137 285.093 157.332 285.926 156.326C287.591 154.315 289.812 151.497 292.036 148.267C294.258 145.04 296.494 141.383 298.179 137.699C299.857 134.028 301.022 130.253 301.022 126.809H299.022C299.022 129.84 297.985 133.311 296.36 136.867C294.74 140.41 292.572 143.961 290.389 147.133C288.207 150.301 286.024 153.071 284.385 155.05C283.566 156.039 282.884 156.829 282.408 157.371C282.17 157.641 281.984 157.85 281.857 157.99C281.794 158.06 281.746 158.114 281.714 158.149C281.698 158.166 281.686 158.179 281.678 158.188C281.674 158.192 281.671 158.195 281.669 158.197C281.668 158.198 281.668 158.199 281.667 158.2C281.667 158.2 281.667 158.2 281.667 158.2C281.667 158.2 281.667 158.2 282.402 158.878ZM301.022 126.809C301.022 116.74 292.627 108.541 282.402 108.541V110.541C291.561 110.541 299.022 117.882 299.022 126.809H301.022Z" fill="#37334A"/>
<path d="M282.402 158.878L281.667 159.555C281.856 159.761 282.123 159.878 282.402 159.878C282.682 159.878 282.948 159.761 283.138 159.555L282.402 158.878ZM282.402 131.976C279.412 131.976 277.109 129.691 277.109 126.809H275.109C275.109 130.833 278.345 133.976 282.402 133.976V131.976ZM277.109 126.809C277.109 123.927 279.412 121.642 282.402 121.642V119.642C278.346 119.642 275.109 122.785 275.109 126.809H277.109ZM282.402 121.642C285.393 121.642 287.695 123.927 287.695 126.809H289.695C289.695 122.785 286.459 119.642 282.402 119.642V121.642ZM287.695 126.809C287.695 129.691 285.393 131.976 282.402 131.976V133.976C286.459 133.976 289.695 130.833 289.695 126.809H287.695ZM282.402 108.541C272.178 108.541 263.782 116.74 263.782 126.809H265.782C265.782 117.882 273.244 110.541 282.402 110.541V108.541ZM263.782 126.809C263.782 130.253 264.948 134.028 266.626 137.699C268.31 141.383 270.547 145.04 272.769 148.267C274.992 151.497 277.214 154.315 278.879 156.326C279.712 157.332 280.407 158.137 280.894 158.691C281.138 158.968 281.33 159.183 281.462 159.329C281.527 159.402 281.578 159.458 281.613 159.496C281.63 159.515 281.643 159.53 281.652 159.54C281.657 159.544 281.66 159.548 281.663 159.551C281.664 159.552 281.665 159.553 281.666 159.554C281.666 159.554 281.666 159.555 281.666 159.555C281.667 159.555 281.667 159.555 282.402 158.878C283.138 158.2 283.138 158.2 283.138 158.2C283.138 158.2 283.137 158.2 283.137 158.2C283.137 158.199 283.136 158.198 283.135 158.197C283.133 158.195 283.131 158.192 283.127 158.188C283.119 158.179 283.107 158.166 283.091 158.149C283.059 158.114 283.01 158.06 282.947 157.99C282.821 157.85 282.634 157.641 282.396 157.371C281.92 156.829 281.238 156.039 280.419 155.05C278.781 153.071 276.597 150.301 274.416 147.133C272.233 143.961 270.064 140.41 268.445 136.867C266.819 133.311 265.782 129.84 265.782 126.809H263.782ZM282.402 158.878C283.138 159.555 283.138 159.555 283.138 159.555C283.138 159.555 283.138 159.554 283.139 159.554C283.14 159.553 283.14 159.552 283.142 159.551C283.144 159.548 283.148 159.544 283.152 159.54C283.161 159.53 283.174 159.515 283.192 159.496C283.226 159.458 283.277 159.402 283.343 159.329C283.475 159.183 283.667 158.968 283.91 158.691C284.398 158.137 285.093 157.332 285.926 156.326C287.591 154.315 289.812 151.497 292.036 148.267C294.258 145.04 296.494 141.383 298.179 137.699C299.857 134.028 301.022 130.253 301.022 126.809H299.022C299.022 129.84 297.985 133.311 296.36 136.867C294.74 140.41 292.572 143.961 290.389 147.133C288.207 150.301 286.024 153.071 284.385 155.05C283.566 156.039 282.884 156.829 282.408 157.371C282.17 157.641 281.984 157.85 281.857 157.99C281.794 158.06 281.746 158.114 281.714 158.149C281.698 158.166 281.686 158.179 281.678 158.188C281.674 158.192 281.671 158.195 281.669 158.197C281.668 158.198 281.668 158.199 281.667 158.2C281.667 158.2 281.667 158.2 281.667 158.2C281.667 158.2 281.667 158.2 282.402 158.878ZM301.022 126.809C301.022 116.74 292.627 108.541 282.402 108.541V110.541C291.561 110.541 299.022 117.882 299.022 126.809H301.022Z" fill="#37334A"/>
<path fill-rule="evenodd" clip-rule="evenodd" d="M135.994 124.922C135.994 127.677 134.863 130.172 133.037 131.956C131.258 133.705 128.825 134.779 126.138 134.779C123.455 134.779 121.018 133.705 119.243 131.956C117.413 130.172 116.282 127.677 116.282 124.922C116.282 124.522 116.307 124.129 116.354 123.744C116.936 118.858 121.095 115.066 126.138 115.066C131.186 115.066 135.345 118.858 135.921 123.75C135.968 124.134 135.994 124.522 135.994 124.922Z" stroke="#37334A" stroke-width="2" stroke-linecap="round" stroke-linejoin="round"/>
<path fill-rule="evenodd" clip-rule="evenodd" d="M135.921 123.75C133.208 125.166 129.816 126.006 126.138 126.006C122.46 126.006 119.067 125.166 116.354 123.745C116.935 118.858 121.095 115.066 126.138 115.066C131.185 115.066 135.345 118.858 135.921 123.75Z" stroke="#37334A" stroke-width="2" stroke-linecap="round" stroke-linejoin="round"/>
<path fill-rule="evenodd" clip-rule="evenodd" d="M133.037 131.956C131.258 133.704 128.825 134.778 126.138 134.778C123.456 134.778 121.018 133.704 119.244 131.956C119.736 128.589 122.636 126.006 126.138 126.006C129.639 126.006 132.539 128.589 133.037 131.956Z" stroke="#37334A" stroke-width="2" stroke-linecap="round" stroke-linejoin="round"/>
<path fill-rule="evenodd" clip-rule="evenodd" d="M232.99 141.027C232.554 136.668 225.305 138.346 221.46 138.682C218.834 132.877 216.401 128.623 214.167 125.512C207.453 116.127 202.618 117.075 200.235 117.075C197.056 117.075 172.49 116.906 162.459 117.075C152.429 117.237 145.914 135.327 143.406 138.682C143.406 138.682 132.517 135.751 132.038 139.686C131.678 143.372 133.88 144.039 138.727 145.042C131.708 173.523 139.897 175.032 139.897 175.032V183.905C139.897 186.924 143.406 186.998 143.406 186.998H150.929C153.101 186.998 153.101 183.238 153.101 183.238V175.867H211.765V183.905C211.765 187.759 215.611 186.924 215.611 186.924H221.796C224.969 186.924 225.305 183.574 225.305 183.574V175.032C232.66 168.328 227.309 147.225 226.475 144.544C228.647 144.376 233.245 143.546 232.99 141.027Z" fill="#4CE5B1"/>
<path opacity="0.1" fill-rule="evenodd" clip-rule="evenodd" d="M226.482 144.881C227.315 147.541 232.66 168.476 225.313 175.127V183.602C225.313 183.602 224.978 186.924 221.808 186.924H215.63C215.63 186.924 211.789 187.753 211.789 183.93V175.956H164L170.793 169.194L170.893 169.095L177.394 162.624L214.189 126C216.42 129.087 218.85 133.306 221.472 139.066C225.313 138.732 232.555 137.068 232.99 141.392C233.245 143.891 228.652 144.714 226.482 144.881Z" fill="#242E42"/>
<path fill-rule="evenodd" clip-rule="evenodd" d="M210.082 142.938H157.295C154.137 142.938 147.284 144.052 151.152 136.85C151.906 135.471 152.889 133.299 152.889 133.299C154.712 129.409 156.795 124.001 162.939 124.001H198.97C200.867 123.994 203.309 124.001 205.929 126.116C207.66 127.507 209.464 129.818 211.245 133.639C213.574 138.203 216.559 142.938 210.082 142.938Z" fill="#FDFFFE"/>
<path fill-rule="evenodd" clip-rule="evenodd" d="M196 124L177 143H164L183.001 124H196Z" fill="#EDEDED"/>
<path fill-rule="evenodd" clip-rule="evenodd" d="M207 126.123L190.195 143H181L199.918 124.001C201.849 123.994 204.333 124.001 207 126.123Z" fill="#EDEDED"/>
<path fill-rule="evenodd" clip-rule="evenodd" d="M152.609 169C150.187 169 145.261 167.802 142.755 166.432C140.25 165.063 141.085 159.927 141.336 159.285C141.586 158.643 143.089 157.53 144.425 158.215C145.762 158.9 148.791 159.638 152.025 160.355C155.826 161.198 156.533 163.265 156.951 165.567C157.369 167.869 155.031 169 152.609 169Z" fill="#FDFFFE"/>
<path fill-rule="evenodd" clip-rule="evenodd" d="M196.8 169.663C191.082 170.197 175.945 170.019 170.9 169.663C165.853 169.306 160.64 170.197 162.322 162C170.227 162.89 196.128 162.713 202.519 162C203.865 165.742 202.519 169.128 196.8 169.663Z" fill="#FDFFFE"/>
<path fill-rule="evenodd" clip-rule="evenodd" d="M222.245 166.432C219.74 167.802 214.813 169 212.39 169C209.969 169 207.631 167.869 208.049 165.567C208.467 163.266 209.174 161.198 212.976 160.355C216.21 159.638 219.238 158.9 220.574 158.215C221.911 157.53 223.414 158.643 223.664 159.285C223.915 159.927 224.75 165.063 222.245 166.432Z" fill="#FDFFFE"/>
</svg>
